<svg width="26" height="26" viewBox="0 0 26 26" fill="none" xmlns="http://www.w3.org/2000/svg">
<path fill-rule="evenodd" clip-rule="evenodd" d="M10.8333 4.33332C7.24347 4.33332 4.33332 7.24347 4.33332 10.8333C4.33332 14.4232 7.24347 17.3333 10.8333 17.3333C14.4232 17.3333 17.3333 14.4232 17.3333 10.8333C17.3333 7.24347 14.4232 4.33332 10.8333 4.33332ZM2.16666 10.8333C2.16666 6.04686 6.04686 2.16666 10.8333 2.16666C15.6198 2.16666 19.5 6.04686 19.5 10.8333C19.5 15.6198 15.6198 19.5 10.8333 19.5C6.04686 19.5 2.16666 15.6198 2.16666 10.8333Z" fill="#A5AAB5"/>
<path fill-rule="evenodd" clip-rule="evenodd" d="M15.484 15.484C15.907 15.0609 16.593 15.0609 17.016 15.484L23.516 21.984C23.9391 22.407 23.9391 23.093 23.516 23.516C23.093 23.9391 22.407 23.9391 21.984 23.516L15.484 17.016C15.0609 16.593 15.0609 15.907 15.484 15.484Z" fill="#A5AAB5"/>
</svg>
